{
  "accessors": [
    {
      "bufferView": 2,
      "componentType": 5126,
      "count": 6176,
      "max": [
        1.8354989290237427,
        8.27078914642334,
        15.510222434997559
      ],
      "min": [
        -1.3891639709472656,
        -5.229089260101318,
        -4.156799793243408
      ],
      "type": "VEC3"
    },
    {
      "bufferView": 2,
      "byteOffset": 74112,
      "componentType": 5126,
      "count": 6176,
      "max": [
        1.0,
        1.0,
        1.0
      ],
      "min": [
        -1.0,
        -1.0,
        -1.0
      ],
      "type": "VEC3"
    },
    {
      "bufferView": 3,
      "componentType": 5126,
      "count": 6176,
      "max": [
        1.0,
        1.0,
        1.0,
        1.0
      ],
      "min": [
        -1.0,
        -1.0,
        -1.0,
        1.0
      ],
      "type": "VEC4"
    },
    {
      "bufferView": 1,
      "componentType": 5126,
      "count": 6176,
      "max": [
        0.9951755404472351,
        0.9951754808425903
      ],
      "min": [
        0.004830364137887955,
        0.004895616322755814
      ],
      "type": "VEC2"
    },
    {
      "bufferView": 1,
      "byteOffset": 49408,
      "componentType": 5126,
      "count": 6176,
      "max": [
        0.9951755404472351,
        0.9951754808425903
      ],
      "min": [
        0.004830364137887955,
        0.004895616322755814
      ],
      "type": "VEC2"
    },
    {
      "bufferView": 1,
      "byteOffset": 98816,
      "componentType": 5126,
      "count": 6176,
      "max": [
        0.9951755404472351,
        0.9951754808425903
      ],
      "min": [
        0.004830364137887955,
        0.004895616322755814
      ],
      "type": "VEC2"
    },
    {
      "bufferView": 0,
      "componentType": 5125,
      "count": 18243,
      "type": "SCALAR"
    }
  ],
  "asset": {
    "extras": {
      "author": "Elisei (https://sketchfab.com/elisei_)",
      "license": "CC-BY-4.0 (http://creativecommons.org/licenses/by/4.0/)",
      "source": "https://sketchfab.com/3d-models/hk-usp-9mm-pistol-dd4d144db20140a580848592697bc2b2",
      "title": "H&K USP 9mm Pistol"
    },
    "generator": "Sketchfab-16.64.0",
    "version": "2.0"
  },
  "bufferViews": [
    {
      "buffer": 0,
      "byteLength": 72972,
      "name": "floatBufferViews",
      "target": 34963
    },
    {
      "buffer": 0,
      "byteLength": 148224,
      "byteOffset": 72972,
      "byteStride": 8,
      "name": "floatBufferViews",
      "target": 34962
    },
    {
      "buffer": 0,
      "byteLength": 148224,
      "byteOffset": 221196,
      "byteStride": 12,
      "name": "floatBufferViews",
      "target": 34962
    },
    {
      "buffer": 0,
      "byteLength": 98816,
      "byteOffset": 369420,
      "byteStride": 16,
      "name": "floatBufferViews",
      "target": 34962
    }
  ],
  "buffers": [
    {
      "byteLength": 468236,
      "uri": "scene.bin"
    }
  ],
  "images": [
    {
      "uri": "textures/USP9_baseColor.png"
    },
    {
      "uri": "textures/USP9_metallicRoughness.png"
    },
    {
      "uri": "textures/USP9_normal.png"
    }
  ],
  "materials": [
    {
      "doubleSided": true,
      "name": "USP9",
      "normalTexture": {
        "index": 2
      },
      "pbrMetallicRoughness": {
        "baseColorTexture": {
          "index": 0
        },
        "metallicRoughnessTexture": {
          "index": 1
        }
      }
    }
  ],
  "meshes": [
    {
      "name": "HK USP 9_USP9_0",
      "primitives": [
        {
          "attributes": {
            "NORMAL": 1,
            "POSITION": 0,
            "TANGENT": 2,
            "TEXCOORD_0": 3,
            "TEXCOORD_1": 4,
            "TEXCOORD_2": 5
          },
          "indices": 6,
          "material": 0,
          "mode": 4
        }
      ]
    }
  ],
  "nodes": [
    {
      "children": [
        1
      ],
      "matrix": [
        1.0,
        0.0,
        0.0,
        0.0,
        0.0,
        2.220446049250313e-16,
        -1.0,
        0.0,
        0.0,
        1.0,
        2.220446049250313e-16,
        0.0,
        0.0,
        0.0,
        0.0,
        1.0
      ],
      "name": "Sketchfab_model"
    },
    {
      "children": [
        2
      ],
      "matrix": [
        0.009999999776482582,
        0.0,
        0.0,
        0.0,
        0.0,
        0.0,
        0.009999999776482582,
        0.0,
        0.0,
        -0.009999999776482582,
        0.0,
        0.0,
        0.0,
        0.0,
        0.0,
        1.0
      ],
      "name": "653f81d5b9a744e3af6b96995fcb8845.fbx"
    },
    {
      "children": [
        3
      ],
      "name": "RootNode"
    },
    {
      "children": [
        4
      ],
      "name": "HK USP 9"
    },
    {
      "mesh": 0,
      "name": "HK USP 9_USP9_0"
    }
  ],
  "samplers": [
    {
      "magFilter": 9729,
      "minFilter": 9987,
      "wrapS": 10497,
      "wrapT": 10497
    }
  ],
  "scene": 0,
  "scenes": [
    {
      "name": "Sketchfab_Scene",
      "nodes": [
        0
      ]
    }
  ],
  "textures": [
    {
      "sampler": 0,
      "source": 0
    },
    {
      "sampler": 0,
      "source": 1
    },
    {
      "sampler": 0,
      "source": 2
    }
  ]
}
